<svg version="1.2" xmlns="http://www.w3.org/2000/svg" viewBox="0 0 800 255" width="800" height="255">
	<title>express-js</title>
	<style>
		.s0 { fill: #222222 } 
	</style>
	<g>
		<path class="s0" d="m5.2 196v-89h111.2v-5.2h-111.2v-81.2h118.2v-5.2h-123.4v185.9h124.4v-5.3zm219.5-128.6l-46.1 60.7-45-60.7h-6.8l48.7 64.6-53.4 69.3h6.3l50.2-65.4 50.5 65.4h6.5l-53.6-69.3 48.9-64.6zm26.6 179.7v-83.3h0.5q4.7 18.2 18.5 29.3 13.8 11 35.1 11 13.8 0 24.5-5.6 10.7-5.6 17.9-15.2 7.1-9.6 10.9-22.4 3.8-12.8 3.8-26.8 0-15.1-3.9-27.9-3.9-12.7-11.4-22.1-7.4-9.4-17.9-14.6-10.6-5.2-23.9-5.2-10.1 0-18.8 3-8.7 3-15.5 8.5-6.8 5.4-11.7 12.9-5 7.4-7.6 16.2h-0.5v-37.5h-5.2v179.7zm54.1-47.9q-24.4 0-39.3-16.8-14.8-16.8-14.8-48.3 0-13 3.6-24.7 3.7-11.8 10.6-20.6 6.9-8.9 17-14.1 10.2-5.2 22.9-5.2 13.1 0 22.8 5.2 9.8 5.2 16.2 14.2 6.3 9 9.6 20.6 3.2 11.6 3.2 24.6 0 11.7-2.9 23.3-3 11.6-9.3 20.8-6.2 9.3-16 15.1-9.8 5.9-23.6 5.9zm85.7 2.1v-75.8q0-10.9 3.1-21.4 3.1-10.4 9.6-18.3 6.6-7.9 16.6-12.5 10-4.6 23.8-3.8v-5.2q-12-0.2-21 2.6-8.9 2.9-15.4 7.8-6.6 5-10.5 11.6-3.9 6.7-5.7 14.2h-0.5v-33.1h-5.2v133.9zm59.6-65.9h111.9q0.6-13.8-2.7-26.6-3.2-12.7-10.4-22.6-7.2-9.9-18.5-15.9-11.3-6-26.9-6-11.2 0-21.9 4.7-10.7 4.7-18.7 13.7-8.1 9-13.1 22-4.9 13-4.9 29.6 0 14.9 3.4 27.8 3.4 12.9 10.4 22.4 7 9.5 18.1 14.7 11 5.2 26.7 4.9 22.9 0 38.5-12.9 15.6-12.9 18.5-36.3h-5.2q-3.4 22.1-17.3 33.2-14 11.1-35.1 11.1-14.3 0-24.2-5-9.9-4.9-16.1-13.5-6.3-8.6-9.2-20.2-3-11.6-3.3-25.1zm106.7-5.2h-106.7q0.8-14.1 5.2-25.3 4.4-11.2 11.6-19.1 7.2-7.9 16.7-12.1 9.5-4.2 20.4-4.2 13 0 22.9 4.8 9.9 4.9 16.5 13.2 6.7 8.3 10.1 19.4 3.3 11 3.3 23.3zm113.3-23.2h5.2q0-22.4-13-32.5-13-10.2-35.4-10.2-12.5 0-21.1 3.1-8.6 3.2-14.1 8.1-5.4 5-7.8 10.9-2.3 6-2.3 11.5 0 10.9 3.9 17.4 3.9 6.6 12.2 10.2 5.7 2.6 13 4.7 7.3 2.1 16.9 4.4 8.6 2.1 17 4.2 8.3 2.1 14.7 5.6 6.4 3.5 10.4 9 4 5.4 4 14.3 0 8.6-4 14.5-4 6-10.3 9.8-6.2 3.8-13.9 5.5-7.7 1.7-15 1.7-23.7 0-36.3-10.6-12.6-10.5-12.6-33.2h-5.2q0 25.3 13.6 37 13.7 11.7 40.5 11.7 8.6 0 17.3-1.9 8.7-2 15.6-6.4 6.9-4.4 11.2-11.5 4.3-7 4.3-17.2 0-9.6-3.7-15.6-3.8-6-9.9-9.9-6.2-3.9-13.8-6.1-7.7-2.2-15.5-4.3-11-2.8-19.2-4.9-8.2-2.1-15.2-5-6.8-2.8-10.8-8.2-4-5.3-4-15.2 0-1.8 1-6.5 1.1-4.7 5-9.5 3.9-4.8 11.9-8.6 8.1-3.8 22.2-3.8 9.6 0 17.5 2.1 8 2.1 13.7 6.6 5.7 4.6 8.9 11.6 3.1 7.1 3.1 17.2zm120.5 0h5.2q0-22.4-13-32.5-13-10.2-35.4-10.2-12.5 0-21.1 3.1-8.6 3.2-14 8.1-5.5 5-7.9 10.9-2.3 6-2.3 11.5 0 10.9 3.9 17.4 3.9 6.6 12.2 10.2 5.8 2.6 13.1 4.7 7.2 2.1 16.9 4.4 8.6 2.1 16.9 4.2 8.3 2.1 14.7 5.6 6.4 3.5 10.4 9 4.1 5.4 4.1 14.3 0 8.6-4.1 14.5-4 6-10.3 9.8-6.2 3.8-13.9 5.5-7.7 1.7-15 1.7-23.6 0-36.3-10.6-12.6-10.5-12.6-33.2h-5.2q0 25.3 13.7 37 13.6 11.7 40.4 11.7 8.6 0 17.4-1.9 8.7-2 15.6-6.4 6.9-4.4 11.2-11.5 4.3-7 4.3-17.2 0-9.6-3.8-15.6-3.8-6-9.9-9.9-6.1-3.9-13.8-6.1-7.7-2.2-15.5-4.3-10.9-2.8-19.1-4.9-8.2-2.1-15.3-5-6.7-2.8-10.8-8.2-4-5.3-4-15.2 0-1.8 1.1-6.5 1-4.7 4.9-9.5 3.9-4.8 12-8.6 8-3.8 22.1-3.8 9.6 0 17.6 2.1 7.9 2.1 13.6 6.6 5.8 4.6 8.9 11.6 3.1 7.1 3.1 17.2z"/>
	</g>
</svg>