<svg version="1.2" xmlns="http://www.w3.org/2000/svg" viewBox="0 0 800 225" width="800" height="225">
	<title>Leaflet</title>
	<defs>
		<linearGradient id="g1" x2="1" gradientUnits="userSpaceOnUse" gradientTransform="matrix(81.601,13.904,-15.849,93.016,581.97,136.981)">
			<stop offset="0" stop-color="#374848"/>
			<stop offset="1" stop-color="#374848"/>
		</linearGradient>
		<linearGradient id="g2" x2="1" gradientUnits="userSpaceOnUse" gradientTransform="matrix(70.414,11.998,-13.208,77.516,584.537,133.032)">
			<stop offset="0" stop-color="#374848"/>
			<stop offset="1" stop-color="#374848"/>
		</linearGradient>
		<linearGradient id="g3" x2="1" gradientUnits="userSpaceOnUse" gradientTransform="matrix(-131.573,44.136,-50.692,-151.119,764.275,81.082)">
			<stop offset="0" stop-color="#374848"/>
			<stop offset="1" stop-color="#374848"/>
		</linearGradient>
		<linearGradient id="g4" x2="1" gradientUnits="userSpaceOnUse" gradientTransform="matrix(-114.657,38.461,-42.209,-125.832,758.921,75.05)">
			<stop offset="0" stop-color="#374848"/>
			<stop offset="1" stop-color="#374848"/>
		</linearGradient>
	</defs>
	<style>
		.s0 { fill: #374848 } 
		.s1 { fill: url(#g1) } 
		.s2 { fill: url(#g2) } 
		.s3 { fill: url(#g3) } 
		.s4 { fill: url(#g4) } 
	</style>
	<g id="SVGRepo_bgCarrier">
	</g>
	<g id="SVGRepo_tracerCarrier">
	</g>
	<g id="SVGRepo_iconCarrier">
		<g>
			<path class="s0" d="m543.3 143.7c-3.1 2.1-6.4 3.1-9.5 3.1-2.4 0-4.3-0.9-5.8-2.8-1.4-1.8-2.2-4.2-2.2-7.2 0-4.3 1.1-10.1 3.3-17.5l6.2-21.2 14.7-1.1 3.1-14.5-13.3 0.8 9.9-32.9-25.3 5.2-8.9 29.5-9.1 0.3-3 14.9 7.2-0.3-4 14.3c-1.9 6.5-3.3 12.1-4.1 17.1-7.5 7.6-13.1 12.5-16.9 14.7-3.7 2.2-7.8 3.2-11.8 3.2-10.7 0-17.2-6-19.7-18.4 27.6-8.1 41.5-18.7 41.5-31.7 0-4.9-1.7-8.9-5.3-11.9-3.6-3-8.3-4.5-14-4.5-11.3 0-21.6 5.5-30.8 16.2-8.5 9.9-13 20.7-13.8 32.7-7.6 7.5-13.4 12.5-17.2 14.8-3.9 2.5-7.5 3.8-10.9 3.8-3.3 0-6.1-1.6-8-4.9-2-3.2-2.9-7.5-2.9-12.9 0-2.5 0.3-7.1 0.7-13.5 12.7-13.6 21.9-26.5 27.9-38.6 5.9-12 8.9-24.5 8.9-37.3 0-4.5-0.7-8.1-1.8-10.8-1.1-2.6-2.6-4-4.5-4-0.3 0-0.9 0.1-1.7 0.3l-24.1 8.4c-8.1 15.6-15.1 32.7-20.9 51.3-5.2 16.7-8 31.4-8.4 43.7-10 12-19.3 18-27.7 18-6.1 0-10.8-3.3-13.9-9.9l8-39.5c12.9-12 21.7-22 26.4-30.2 4.7-8.1 7-16.7 7-25.4 0-5.2-0.8-9.3-2.3-12.4-1.6-3.1-3.5-4.7-5.8-4.7-0.3 0-2.7 0.7-7.1 1.8-4.3 1.1-8.6 2.3-12.5 3.4-3.9 1.2-6.2 2.5-7.3 3.9-0.9 1.4-3.4 6.6-7.3 15.8-4 9.2-6.9 17.5-9 25.1-2.1 7.5-5 19.9-8.2 36.8l-15.8 16.4v-0.2c-5.3 5.3-9.5 9.4-12.5 11.9-3 2.6-5.6 3.9-8.1 3.9-3.9 0-5.8-2.7-5.8-8.1 0-5.2 2.2-14.7 6.4-28.6l8.3-27.7h-5.3l-19.4 10.6c-3.1-7.1-8.6-10.9-16.6-10.9q-9.4 0-21.5 8c-8.2 5.3-14.9 12.2-20 20.8-4.1 6.7-6.6 13.5-7.4 20.7-7.2 7.2-12.6 12.1-16.4 14.3-3.7 2.1-7.8 3.2-11.9 3.2-10.6 0-17.2-6.1-19.7-18.4 27.7-8.1 41.6-18.8 41.6-31.7 0-4.9-1.7-8.9-5.3-11.9-3.6-3-8.3-4.5-14.1-4.5-11.2 0-21.5 5.4-30.8 16.2-8.4 9.9-12.9 20.8-13.7 32.8-9.2 10.2-18.9 15.3-29.1 15.3-5.3 0-11.5-1.4-18.9-4.2-7.3-2.8-12.9-4.7-16.8-5.8-4-0.9-8.6-1.2-14-0.9 8.3-8.6 13.8-17.3 16.9-26.2 3-8.9 5.2-19.1 6.4-30.7 1.3-11.5 2.5-19.8 3.6-25 1.1-5.1 3.1-9.5 6-13.2 2.8-3.8 6.8-5.7 12-5.7 4.2 0 7.6 1.6 10.1 4.7 2.5 3.1 3.8 7.4 3.8 12.8 0 7.1-1.6 13.2-4.8 18.3-3.3 5.2-7.1 7.7-11.3 7.7-2.7 0-4.7-1-6.4-3-0.8 2.7-1.1 4.8-1.1 6.9 0 3.7 1.1 6.7 3.4 8.9 2.4 2.2 5.4 3.3 9.4 3.3 7.7 0 14.4-3.8 20.2-11.1 5.8-7.5 8.7-16.1 8.7-26q0-12.9-8.4-21.1c-5.6-5.4-12.7-8.2-21.4-8.2-12.7 0-24.4 6.2-35.2 18.9-10.8 12.5-16.7 30-17.8 52.1-0.6 10.8-1.4 18.5-2.3 23.2-1 4.7-3.3 9.5-6.9 14.3-8.6 1.5-15.2 4-19.9 7.5q-7 5.4-7 12.7c0 2.3 0.8 4.2 2.4 5.8 1.5 1.5 3.6 2.3 5.9 2.3 6.9 0 14.5-4.7 23.1-13.9q6.8 1.9 16 6.1c5.9 2.8 11.1 4.7 15.3 6 4.2 1 8.6 1.7 13.1 1.7 15.6 0 30.8-7.5 45.8-22.7 1.1 5.8 3.4 10.8 7.3 14.7 5.3 5.5 12.2 8.3 20.8 8.3q11.5 0 21.1-5.6c6.1-3.6 13-9.3 20.6-16.6 0.6 5.5 2.5 10.3 5.5 14.4 3.9 5.1 8.6 7.8 14.1 7.8 5.6 0 11-2.2 16.5-6.4 5.3-4.2 11.1-11 17.5-20-0.6 17.5 4.1 26.4 14.1 26.4 3.9 0 8.1-1.4 12.5-4.4 4.4-3 11.5-9.1 21.5-18.7l6.4-7.1c1.8 4.9 3 7.8 3.8 9.1-5 27.5-8.4 49.8-10.5 67.2 9.2-1.9 17.1-3.1 23.6-4.1 2.1-16.1 4.4-30.9 7.1-44.8 4.2 1.8 7.5 2.6 9.8 2.6 5 0 10.8-2 17.2-5.9 6.2-3.9 12.5-9.4 18.9-16.4 0.8 5.8 2.6 10.6 5.8 14.5 4 5.2 9.5 7.8 16.2 7.8 5.8 0 12-1.9 18.5-5.6 6.4-3.8 13.9-9.5 22.5-17.5 1.1 5.9 3.4 10.8 7.3 14.8 5.3 5.5 12.2 8.3 20.8 8.3q11.5 0 21.1-5.6c6.1-3.6 12.9-9.2 20.6-16.6 0.3 6.3 2 11.4 5 15.3 3.4 4.6 7.8 6.9 13.1 6.9 5.2 0 10.8-1.9 16.6-5.6 5.8-3.8 12.6-9.5 20.6-17.5v-10.9c-6.7 6.2-11.4 10.6-14.5 12.6zm-134.2-87.6c4.3-11.6 7.8-17.4 10.1-17.4 1.1 0 1.9 0.8 2.7 2.2 0.6 1.4 1.1 3.3 1.1 5.6 0 8-2.5 17.5-7.5 28.5-5 11.1-11.4 20.9-19.6 29.8q6.4-31.4 13.2-48.7zm-61.1-7.5c2.8-7.2 5.6-11 8.4-11 1.4 0 2.7 0.8 3.6 2.5q1.4 2.6 1.4 6.6c0 6.2-2 13.1-6.2 20.5-4.3 7.3-10 14.3-17.4 20.7 3.9-19 7.4-32.2 10.2-39.3zm-187.8 41.5c4.3 0 6.5 3 6.5 9.1 0 12.2-8.1 20.6-24.2 25.1 0-10.1 1.9-18.4 5.6-24.6 3.8-6.3 7.8-9.6 12.1-9.6zm81.5 40.8c-5.6 10.8-11.5 16.1-17.8 16.1-2.6 0-4.7-1.1-6.4-3.1-1.7-2.1-2.5-4.9-2.5-8.3q0-13.6 8.4-29.5c5.7-10.8 11.6-16.1 18-16.1 2.7 0 4.7 0.9 6.4 2.9 1.6 2.1 2.4 4.7 2.4 8.3-0.2 9.1-3 18.9-8.5 29.7zm229.1-40.8c4.4 0 6.5 3 6.5 9.1 0 12.2-8.1 20.6-24.2 25.1 0-10.1 1.9-18.4 5.7-24.6 3.9-6.5 7.9-9.6 12-9.6z"/>
			<path class="s1" d="m589.7 90.6c2 2.3 40.6 15.2 53.9 30.8 13.4 15.6 19.2 29.5 17.3 42.9-1.8 13.5-10.1 13.2-13.6 18.2-3.6 4.8-8.6 10.9-17.9 10.3-12.5-0.8-25.3-7-34.6-28.6-9.2-21.6-8.6-41.9-7.8-53.1 0.7-11.4 2.7-20.5 2.7-20.5z"/>
			<path class="s2" d="m590.8 94.2l57.8 86.2-2.7 3z"/>
			<path class="s0" d="m369.4 214l0.4-3.7c15.5-8.3 34.6-11.4 50.2-19.4 4.7 2 6.7-0.9 11.7-0.6 1.9 1.5-2.3 3.7 2.7 3.4 11.1 1.4 22-0.6 32.9-1.5 11.6-1 23 0.1 34.4-0.7 3.6-0.1 9.2-5.1 13.6-2.6 2 3.6-6.5 3.9-4.2 7.9 22.7 5.4 79.4 27.9 89.1 3.3 0.1 1.6-1.8 4.4 0.9 4.1 19.1-8.6 51.6-27 57.3-31.9 6.3-5.3 14.7-5.1 22.9-7 14.8-3.5 30.6-6.9 43.4-14.4 8 5.5 24.5 8.3 33.3 6.3 9.2-2.1 23.6-17.4 31.2-22.9 3-2.1 7.5-6.2 10.6-3.9-2.1 1.6 0.4 6-2.3 5.2-1.4-2.7-4.2 0.5-6.2-0.2-7.7 6.4-15.8 12.4-23.6 18.5-3.8 2.2 3.6 4.5-0.8 5.3-20.3 4-51.4-6.1-64.2 8-20.4 7-39.6 8.7-59.6 19.5-11.5 6.2-25.6 17.5-37.6 23.4-2.1 1-5 1.4-7.4 2.8-2.9 1.8-3.6 4.1-6.1 4.6-6.1 1.2-18.7-1.9-26.8-3-26.6-3.9-55-14.7-80.2-16.1-10-0.5-21.7 1.1-33 1.6-23.9 1.1-38.7 1.7-57.9 8.1-7.5 2.7-19.7 9.7-24.7 5.9z"/>
			<path class="s3" d="m738.4 5.8c-2.6 4.3-63.9 35.9-82.1 65.4-18.5 29.7-23.6 53-16.9 74.9 6.7 21.8 19.4 20.9 26.5 28.1 7.2 7.2 17.1 15.9 32.9 12.5 20.6-4.7 40.4-18.5 50.3-56.9 9.8-38.4 3.4-72.2-0.8-90.8-4.2-18.6-9.9-33.3-9.9-33.3z"/>
			<path class="s4" d="m737.3 12.3l-74.2 159.1 4.4 4.4z"/>
		</g>
	</g>
</svg>