<svg version="1.2" xmlns="http://www.w3.org/2000/svg" viewBox="0 0 800 232" width="800" height="232">
	<title>mongodb</title>
	<style>
		.s0 { fill: #374848 } 
	</style>
	<g id="SVGRepo_bgCarrier">
	</g>
	<g id="SVGRepo_tracerCarrier">
	</g>
	<g id="SVGRepo_iconCarrier">
		<g>
			<path fill-rule="evenodd" class="s0" d="m715.5 91.5c1.4 0 5.7 0.4 16.8 0.4 10.5 0 18.9-0.3 29.1-0.3 12.6 0 29.9 4.5 29.9 23.2 0 9.3-6.5 16.6-15 20.2-0.4 0.2-0.4 0.5 0 0.6 12.1 3 22.8 10.5 22.8 24.7 0 13.8-8.7 22.6-21.2 28.1-7.7 3.3-17.2 4.4-26.8 4.4-7.4 0-27.1-0.8-38.1-0.5-1.2-0.5 1-5.7 2-6.5 2.6-0.2 4.6-0.3 7.4-1.2 3.9-1 4.3-2.1 4.9-8 0.3-5.1 0.3-23 0.3-35.7 0-17.4 0.1-29.2 0-35-0.2-4.5-1.8-5.9-4.9-6.8-2.5-0.4-6.5-1-9.8-1.4-0.8-0.7 1.7-5.6 2.6-6.2zm66.6 72.4c0-14.3-10.6-22.2-29.6-22.2-0.9 0-6.9-0.2-8.4 0.1-0.4 0.1-1 0.4-1 0.9 0 10.2-0.1 26.5 0.3 32.8 0.3 2.8 2.3 6.7 4.8 7.8 2.6 1.5 8.5 1.8 12.5 1.8 11.4 0 21.4-6.4 21.4-21.2zm-37.2-64.5c-0.8 0.2-1.5 1.7-1.5 2.6-0.1 5.8-0.3 21.1-0.3 31.4 0 0.3 0.5 0.9 0.9 0.9 2.2 0.1 7.4 0.3 11.8 0.3 6.2 0 9.8-0.9 11.8-1.7 5.2-2.6 7.7-8.3 7.7-14.5 0-13.9-9.8-19.3-24.4-19.3-1-0.1-3.9-0.1-6 0.3zm-145.4-7.9c2.8 0 13.3 0.4 18.3 0.4 9.1 0 15.6-0.4 32.8-0.4 14.4 0 26.5 3.9 35.1 11.2 10.6 9.1 16.1 21.7 16.1 36.9 0 21.8-10 34.4-19.9 41.6-10 7.3-23 11.6-41.4 11.6-9.8 0-26.7-0.2-40.7-0.4h-0.1c-0.8-1.3 1.1-6.3 2.3-6.5 3.7-0.4 4.7-0.6 6.6-1.3 3-1.1 3.6-2.7 4-8 0.5-10 0.3-22 0.3-35.5 0-9.7 0.2-28.6-0.1-34.6-0.4-5.1-2.6-6.4-6.9-7.2-2.2-0.5-5.1-1-9.1-1.5-0.6-1 2-5.5 2.7-6.3zm32.8 89.7c3.4 2.7 10.2 3.9 16.2 3.9 7.8 0 15.6-1.5 23.1-8.3 7.7-6.9 13-17.5 13-34.6 0-16.3-6.2-29.5-18.9-37.3-7.2-4.5-16.4-6.4-27.1-6.4-3.2 0-6.2 0.2-8.1 1.1-0.4 0.2-1.4 1.5-1.4 2.3-0.3 2.8-0.3 25-0.3 38 0 13.4 0 32.2 0.3 34.3 0 2.2 1 5.5 3.2 7z"/>
			<path fill-rule="evenodd" class="s0" d="m424.6 193c-2.3 0-8.1-0.4-17-0.4-7.2 0-12.1 0.4-16.3 0.4-0.7-1-1-5.5 0-6.5 3-0.3 5.6-0.9 6.6-1.3 2.2-0.7 2.6-2.2 2.6-7.9 0-10.7 0.3-23-0.4-29.2-0.4-2.7-1.4-6.4-4.6-9-2.3-1.9-5.3-3.4-10-3.4-4.7 0-10 2.1-13.4 4.9-0.8 0.9-1.7 2.4-1.7 5.4 0 10.9 0 27.1 0.3 34.7 0.1 3.1 0.9 4.4 3.5 4.9 1.8 0.6 3.8 0.9 6.6 1 0.6 1.1 0.3 5.4-0.7 6.5-2.5 0-7.4-0.4-16.9-0.4-6.9 0-15.3 0.4-16.9 0.4-0.8-1-0.8-5.6 0-6.5 2.5-0.2 4.1-0.7 6.1-1.1l-0.3 0.1c2.6-0.5 3.6-1.8 3.7-5.4 0.5-9.1 0.5-25.7 0.3-36.5 0-1.3 0.2-2.9-1.3-4.1-2-1.3-4.6-2.6-8.5-3.7h-0.1c-3.6-1.2-2.8-4.5 0.7-5.2 4.8-0.4 17.7-3.5 22.4-5.8 0 0 1.1 1 1 3.1-0.2 2.1-0.5 5.3-0.5 6.9-0.1 1.6 1 0.6 1.2 0.4 7-6 15.6-10.4 21.9-10.4 7.2 0 12.8 3.2 16.7 8.7 3.3 4.7 4.6 11.5 4.6 19.3 0 9.7 0 24.1 0.3 29.1 0 0.6 0.7 2.1 1.2 2.3 3.2 1.5 5.7 2.1 9.4 2.5 0.5 1.1 0.2 5.3-0.5 6.2zm40.4 39.9c-8.8 0-15.1-1.8-20.6-6-5.4-4.1-7.7-10.1-7.7-14.3 0-1.2 0.3-4.3 2.9-7.2 1.6-1.7 5.1-5.1 13.3-10.7 0.3-0.1 0.4-0.3 0.4-0.6 0-0.2-0.3-0.5-0.6-0.7-6.7-2.6-8.8-6.8-9.3-9.1v-0.2c-0.2-0.9-0.5-1.8 0.8-2.6 1-0.8 2.5-1.6 4.1-2.6 2.4-1.5 5-3.1 6.6-4.4 0.3-0.3 0.3-0.5 0.3-0.8 0-0.3-0.3-0.6-0.6-0.8-10.1-3.3-15.1-10.8-15.1-22 0-7.4 3.3-14 9.2-18.2 4-3.2 14.1-7 20.8-7h0.4c6.8 0.1 10.5 1.5 15.9 3.4 2.8 1 5.6 1.5 9.3 1.5 5.7 0 8.1-1.8 10.1-3.8 0.2 0.3 0.5 1 0.6 2.9 0.1 1.9-0.4 4.6-1.9 6.6-1.1 1.6-3.7 2.8-6.3 2.8h-0.7c-2.6-0.3-3.8-0.6-3.8-0.6l-0.6 0.3c-0.1 0.3 0 0.6 0.2 1l0.1 0.3c0.3 1.3 0.9 5.2 0.9 6.2 0 11.8-4.8 17-9.8 20.9-4.9 3.6-10.5 5.9-16.9 6.5-0.1 0-0.7 0-2 0.1-0.7 0-1.7 0.2-1.9 0.2h-0.1c-1.2 0.2-4.1 1.7-4.1 4.1 0 2.2 1.3 4.8 7.5 5.2 1.3 0.2 2.6 0.2 4.1 0.3 8.2 0.6 18.4 1.3 23.2 2.9 6.6 2.5 10.8 8.4 10.8 15.4 0 10.7-7.6 20.7-20.3 26.8-6.2 2.8-12.4 4.2-19.2 4.2zm-1-37.5c-2.9 0-4.9 0.9-6.2 1.6-6.1 3.9-8.8 7.7-8.8 12.1 0 4.2 1.6 7.5 5 10.4 4.2 3.6 10 5.4 17.3 5.4 14.7 0 21.2-8 21.2-15.8 0-5.4-2.7-9-8.3-11.1-4.1-1.7-11.4-2.6-20.2-2.6zm1-63.7c-7.6 0-12.4 5.9-12.4 15.1 0 9.4 4.2 20.2 16 20.2 2 0 5.8-0.8 7.5-2.8 2.7-2.6 4.6-7.8 4.6-13.3 0-12-5.9-19.2-15.7-19.2zm84.8 62.4c-24.5 0-33.3-18-33.3-34.9 0-11.8 4.7-20.9 14.2-27.3 6.8-4.2 14.9-6.5 22.1-6.5 18.7 0 31.9 13.4 31.9 32.7 0 13.1-5.2 23.5-15.2 29.8-4.7 3.2-12.9 6.2-19.7 6.2zm-2.6-61.7c-3 0-5.8 0.7-7.8 2.2-5.6 3.5-8.5 10.4-8.5 20.5 0 18.9 9.5 32.1 23.1 32.1 4 0 7.2-1.1 9.9-3.4 4.2-3.5 6.4-10.4 6.4-20.1 0-18.7-9.4-31.3-23.1-31.3zm-251.8 61.7c-24.5 0-33.3-18-33.3-34.9 0-11.8 4.8-20.9 14.3-27.3 6.8-4.2 14.8-6.5 22.1-6.5 18.7 0 31.8 13.4 31.8 32.7 0 13.1-5.2 23.5-15.1 29.8-4.6 3.2-12.9 6.2-19.8 6.2zm-2.6-61.7c-3 0-5.7 0.7-7.8 2.2-5.6 3.5-8.5 10.4-8.5 20.5 0 18.9 9.6 32.1 23.1 32.1 4 0 7.2-1.1 10-3.4 4.1-3.5 6.3-10.4 6.3-20.1 0-18.7-9.2-31.3-23.1-31.3zm-162.2 60.3c-0.3-0.4-0.6-1.7-0.4-3.3 0-1.2 0.3-1.9 0.4-2.2 3-0.4 4.6-0.8 6.4-1.3 2.8-0.7 4-2.3 4.1-5.9 0.5-8.6 0.5-25.1 0.3-36.5v-0.3c0-1.3 0-2.8-1.6-4-2.3-1.4-5-2.7-8.6-3.7-1.3-0.5-2.2-1.2-2-2.1 0-0.8 0.8-1.8 2.7-2.1 4.8-0.5 17.2-3.5 22.1-5.6 0.3 0.2 0.7 1.1 0.7 2.3l-0.1 1.5c-0.2 1.6-0.3 3.5-0.3 5.4 0 0.6 0.5 1 1.1 1 0.3 0 0.6-0.2 0.9-0.3 9.2-7.2 17.6-9.8 21.9-9.8 7.1 0 12.5 3.3 16.7 10.2 0.3 0.5 0.6 0.6 1 0.6 0.3 0 0.8-0.1 0.9-0.4 8.5-6.5 17-10.4 22.6-10.4 13.4 0 21.4 9.9 21.4 26.8 0 4.8 0 11-0.2 16.6 0 5-0.1 9.7-0.1 13 0 0.7 1 3 2.6 3.4 2 1 4.7 1.5 8.3 2.1h0.2c0.3 1-0.3 4.7-0.9 5.4-0.8 0-2.1 0-3.6-0.1q-1.3-0.1-2.7-0.1-1.4-0.1-2.8-0.1-1.3-0.1-2.7-0.1-1.4 0-2.7 0c-9 0-13.6 0.1-18.1 0.4-0.2-1.1-0.4-4.6 0-5.4 2.6-0.5 3.9-0.9 5.5-1.3 2.9-0.9 3.6-2.2 3.8-6 0-2.7 0.5-26.1-0.3-31.7-0.9-5.7-5.2-12.5-14.7-12.5-3.6 0-9.3 1.4-14.7 5.6-0.3 0.3-0.6 1-0.6 1.4v0.2c0.6 3 0.6 6.5 0.6 11.8v9.4c0 6.5-0.2 12.5 0 17.1 0 3.2 1.8 3.9 3.4 4.5 0.9 0.2 1.5 0.3 2.2 0.4 1.3 0.3 2.6 0.6 4.6 1.1 0.3 0.5 0.3 2.4-0.1 4-0.2 0.9-0.5 1.3-0.6 1.4-4.9-0.1-10-0.3-17.3-0.3-2.2 0-5.9 0.2-9.1 0.2-2.6 0-5.1 0.1-6.5 0.1-0.1-0.3-0.4-1.3-0.4-2.9 0-1.2 0.3-2.3 0.6-2.5 0.7-0.2 1.2-0.3 2-0.3 1.7-0.3 3.1-0.6 4.6-0.9 2.4-0.7 3.3-2 3.4-5.2 0.5-7.2 0.9-27.8-0.1-33-1.7-8.4-6.5-12.6-14.1-12.6-4.5 0-10.1 2.2-14.7 5.7-0.8 0.5-1.3 2-1.3 3.3v8.5c0 10.4 0 23.4 0.1 29 0.2 1.7 0.7 3.7 4 4.4 0.8 0.2 1.9 0.5 3.4 0.6l2.6 0.5c0.2 0.8 0.1 4.3-0.5 5.4-1.4 0-3.1-0.1-5.2-0.1-3-0.2-6.9-0.3-11.2-0.3-5.1 0-8.7 0.1-11.5 0.3-2.1-0.3-3.7-0.3-5.4-0.3z"/>
			<path fill-rule="evenodd" class="s0" d="m54.8 227.3l-5.9-2c0 0 0.7-30.1-10.1-32.3-7.2-8.4 1.1-354.7 27.1-1.2 0 0-9 4.5-10.6 12.1-1.7 7.5-0.5 23.4-0.5 23.4z"/>
			<path fill-rule="evenodd" class="s0" d="m54.8 227.3l-5.9-2c0 0 0.7-30.1-10.1-32.3-7.2-8.4 1.1-354.7 27.1-1.2 0 0-9 4.5-10.6 12.1-1.7 7.5-0.5 23.4-0.5 23.4z"/>
			<path fill-rule="evenodd" class="s0" d="m57.9 198.2c0 0 51.8-34 39.7-104.8-11.7-51.5-39.2-68.4-42.3-74.9-3.3-4.6-6.4-12.7-6.4-12.7l2.1 143.2c0 0.2-4.4 43.8 6.9 49.2z"/>
			<path fill-rule="evenodd" class="s0" d="m57.9 198.2c0 0 51.8-34 39.7-104.8-11.7-51.5-39.2-68.4-42.3-74.9-3.3-4.6-6.4-12.7-6.4-12.7l2.1 143.2c0 0.2-4.4 43.8 6.9 49.2z"/>
			<path fill-rule="evenodd" class="s0" d="m45.8 200.1c0 0-48.6-33.2-45.7-91.6 2.8-58.4 37.1-87.1 43.7-92.3 4.3-4.6 4.5-6.3 4.8-10.9 3 6.4 2.4 97 2.9 107.7 1.3 41.1-2.4 79.3-5.7 87.1z"/>
			<path fill-rule="evenodd" class="s0" d="m45.8 200.1c0 0-48.6-33.2-45.7-91.6 2.8-58.4 37.1-87.1 43.7-92.3 4.3-4.6 4.5-6.3 4.8-10.9 3 6.4 2.4 97 2.9 107.7 1.3 41.1-2.4 79.3-5.7 87.1z"/>
		</g>
	</g>
</svg>